{
    "asset" : {
        "generator" : "Khronos glTF Blender I/O v0.9.36",
        "version" : "2.0"
    },
    "scene" : 0,
    "scenes" : [
        {
            "name" : "Scene",
            "nodes" : [
                0,
                1,
                2
            ]
        }
    ],
    "nodes" : [
        {
            "mesh" : 0,
            "name" : "Cube.005",
            "scale" : [
                0.8612602949142456,
                0.21500760316848755,
                0.6658531427383423
            ],
            "translation" : [
                3.851935863494873,
                -0.1816195696592331,
                -0.3848486840724945
            ]
        },
        {
            "mesh" : 1,
            "name" : "Cube.003",
            "scale" : [
                0.29218271374702454,
                0.4104255735874176,
                1.3552501201629639
            ],
            "translation" : [
                0.6376582384109497,
                -0.13567844033241272,
                -3.2468161582946777
            ]
        },
        {
            "mesh" : 2,
            "name" : "Cylinder.001",
            "scale" : [
                1.4520010948181152,
                0.4223577678203583,
                1.4520010948181152
            ],
            "translation" : [
                -3.442289113998413,
                0.98081374168396,
                -3.2654452323913574
            ]
        }
    ],
    "animations" : [
        {
            "channels" : [
                {
                    "sampler" : 0,
                    "target" : {
                        "node" : 2,
                        "path" : "translation"
                    }
                }
            ],
            "name" : "Cylinder.002Action.002",
            "samplers" : [
                {
                    "input" : 36,
                    "interpolation" : "CUBICSPLINE",
                    "output" : 37
                }
            ]
        }
    ],
    "materials" : [
        {
            "doubleSided" : true,
            "name" : "Material.023",
            "pbrMetallicRoughness" : {
                "baseColorFactor" : [
                    1,
                    1,
                    1,
                    1
                ],
                "metallicFactor" : 0,
                "roughnessFactor" : 0.5
            }
        },
        {
            "doubleSided" : true,
            "name" : "Material.024",
            "pbrMetallicRoughness" : {
                "baseColorFactor" : [
                    1,
                    1,
                    1,
                    1
                ],
                "metallicFactor" : 0.5885714292526245,
                "roughnessFactor" : 0.46000000834465027
            }
        },
        {
            "doubleSided" : true,
            "name" : "Material.020",
            "pbrMetallicRoughness" : {
                "baseColorFactor" : [
                    0.07658171653747559,
                    0.07658171653747559,
                    0.07658171653747559,
                    1
                ],
                "metallicFactor" : 0,
                "roughnessFactor" : 0.6885714530944824
            }
        },
        {
            "doubleSided" : true,
            "name" : "Material.018",
            "pbrMetallicRoughness" : {
                "baseColorFactor" : [
                    1,
                    1,
                    1,
                    1
                ],
                "metallicFactor" : 0,
                "roughnessFactor" : 1
            }
        },
        {
            "doubleSided" : true,
            "name" : "Material.022",
            "pbrMetallicRoughness" : {
                "baseColorFactor" : [
                    0.7879853844642639,
                    0.7760764956474304,
                    0.8000000715255737,
                    1
                ],
                "metallicFactor" : 0.37142857909202576,
                "roughnessFactor" : 0.2142857015132904
            }
        },
        {
            "doubleSided" : true,
            "name" : "Material.019",
            "pbrMetallicRoughness" : {
                "baseColorFactor" : [
                    0.8000000715255737,
                    0,
                    0.00450934749096632,
                    1
                ],
                "metallicFactor" : 0,
                "roughnessFactor" : 0.8799999952316284
            }
        },
        {
            "doubleSided" : true,
            "name" : "Material.025",
            "pbrMetallicRoughness" : {
                "baseColorFactor" : [
                    0.8000000715255737,
                    0.231751948595047,
                    0.039668772369623184,
                    1
                ],
                "metallicFactor" : 0,
                "roughnessFactor" : 0.5
            }
        },
        {
            "doubleSided" : true,
            "name" : "Material.021",
            "pbrMetallicRoughness" : {
                "baseColorFactor" : [
                    0.1688569039106369,
                    0.8000000715255737,
                    0.14727665483951569,
                    1
                ],
                "metallicFactor" : 0.4000000059604645,
                "roughnessFactor" : 0.3514285683631897
            }
        }
    ],
    "meshes" : [
        {
            "name" : "Cube.010",
            "primitives" : [
                {
                    "attributes" : {
                        "POSITION" : 0,
                        "NORMAL" : 1,
                        "TEXCOORD_0" : 2
                    },
                    "indices" : 3,
                    "material" : 0
                },
                {
                    "attributes" : {
                        "POSITION" : 4,
                        "NORMAL" : 5,
                        "TEXCOORD_0" : 6
                    },
                    "indices" : 7,
                    "material" : 1
                },
                {
                    "attributes" : {
                        "POSITION" : 8,
                        "NORMAL" : 9,
                        "TEXCOORD_0" : 10
                    },
                    "indices" : 11,
                    "material" : 2
                },
                {
                    "attributes" : {
                        "POSITION" : 12,
                        "NORMAL" : 13,
                        "TEXCOORD_0" : 14
                    },
                    "indices" : 15,
                    "material" : 3
                },
                {
                    "attributes" : {
                        "POSITION" : 16,
                        "NORMAL" : 17,
                        "TEXCOORD_0" : 18
                    },
                    "indices" : 19,
                    "material" : 4
                },
                {
                    "attributes" : {
                        "POSITION" : 20,
                        "NORMAL" : 21,
                        "TEXCOORD_0" : 22
                    },
                    "indices" : 23,
                    "material" : 5
                },
                {
                    "attributes" : {
                        "POSITION" : 24,
                        "NORMAL" : 25,
                        "TEXCOORD_0" : 26
                    },
                    "indices" : 27,
                    "material" : 6
                }
            ]
        },
        {
            "name" : "Cube.008",
            "primitives" : [
                {
                    "attributes" : {
                        "POSITION" : 28,
                        "NORMAL" : 29,
                        "TEXCOORD_0" : 30
                    },
                    "indices" : 31,
                    "material" : 5
                }
            ]
        },
        {
            "name" : "Cylinder.005",
            "primitives" : [
                {
                    "attributes" : {
                        "POSITION" : 32,
                        "NORMAL" : 33,
                        "TEXCOORD_0" : 34
                    },
                    "indices" : 35,
                    "material" : 7
                }
            ]
        }
    ],
    "accessors" : [
        {
            "bufferView" : 0,
            "componentType" : 5126,
            "count" : 136,
            "max" : [
                1.2733237743377686,
                1.2899754047393799,
                1.2899754047393799
            ],
            "min" : [
                -1.3066270351409912,
                -1.2899755239486694,
                -1.2899754047393799
            ],
            "type" : "VEC3"
        },
        {
            "bufferView" : 1,
            "componentType" : 5126,
            "count" : 136,
            "type" : "VEC3"
        },
        {
            "bufferView" : 2,
            "componentType" : 5126,
            "count" : 136,
            "type" : "VEC2"
        },
        {
            "bufferView" : 3,
            "componentType" : 5123,
            "count" : 384,
            "type" : "SCALAR"
        },
        {
            "bufferView" : 4,
            "componentType" : 5126,
            "count" : 471,
            "max" : [
                14.522148132324219,
                1.630746841430664,
                1.915151596069336
            ],
            "min" : [
                -10.785520553588867,
                -4.836697578430176,
                -7.010743141174316
            ],
            "type" : "VEC3"
        },
        {
            "bufferView" : 5,
            "componentType" : 5126,
            "count" : 471,
            "type" : "VEC3"
        },
        {
            "bufferView" : 6,
            "componentType" : 5126,
            "count" : 471,
            "type" : "VEC2"
        },
        {
            "bufferView" : 7,
            "componentType" : 5123,
            "count" : 1434,
            "type" : "SCALAR"
        },
        {
            "bufferView" : 8,
            "componentType" : 5126,
            "count" : 23,
            "max" : [
                14.104223251342773,
                -1.8141050338745117,
                1.5388741493225098
            ],
            "min" : [
                -6.003384590148926,
                -1.8141050338745117,
                -6.447728633880615
            ],
            "type" : "VEC3"
        },
        {
            "bufferView" : 9,
            "componentType" : 5126,
            "count" : 23,
            "type" : "VEC3"
        },
        {
            "bufferView" : 10,
            "componentType" : 5126,
            "count" : 23,
            "type" : "VEC2"
        },
        {
            "bufferView" : 11,
            "componentType" : 5123,
            "count" : 54,
            "type" : "SCALAR"
        },
        {
            "bufferView" : 12,
            "componentType" : 5126,
            "count" : 8,
            "max" : [
                12.629066467285156,
                1.3272161483764648,
                -4.017496585845947
            ],
            "min" : [
                -4.391944885253906,
                1.3272161483764648,
                -4.547942638397217
            ],
            "type" : "VEC3"
        },
        {
            "bufferView" : 13,
            "componentType" : 5126,
            "count" : 8,
            "type" : "VEC3"
        },
        {
            "bufferView" : 14,
            "componentType" : 5126,
            "count" : 8,
            "type" : "VEC2"
        },
        {
            "bufferView" : 15,
            "componentType" : 5123,
            "count" : 18,
            "type" : "SCALAR"
        },
        {
            "bufferView" : 16,
            "componentType" : 5126,
            "count" : 551,
            "max" : [
                -6.599539279937744,
                4.707664489746094,
                -1.9077653884887695
            ],
            "min" : [
                -10.33895492553711,
                0.35056161880493164,
                -6.744582176208496
            ],
            "type" : "VEC3"
        },
        {
            "bufferView" : 17,
            "componentType" : 5126,
            "count" : 551,
            "type" : "VEC3"
        },
        {
            "bufferView" : 18,
            "componentType" : 5126,
            "count" : 551,
            "type" : "VEC2"
        },
        {
            "bufferView" : 19,
            "componentType" : 5123,
            "count" : 1344,
            "type" : "SCALAR"
        },
        {
            "bufferView" : 20,
            "componentType" : 5126,
            "count" : 1618,
            "max" : [
                -1.4487504959106445,
                0.2641334533691406,
                0.7641960382461548
            ],
            "min" : [
                -5.750195503234863,
                -2.453974962234497,
                -0.891528308391571
            ],
            "type" : "VEC3"
        },
        {
            "bufferView" : 21,
            "componentType" : 5126,
            "count" : 1618,
            "type" : "VEC3"
        },
        {
            "bufferView" : 22,
            "componentType" : 5126,
            "count" : 1618,
            "type" : "VEC2"
        },
        {
            "bufferView" : 23,
            "componentType" : 5123,
            "count" : 4248,
            "type" : "SCALAR"
        },
        {
            "bufferView" : 24,
            "componentType" : 5126,
            "count" : 404,
            "max" : [
                -1.4487504959106445,
                -0.6419026851654053,
                0.7641960382461548
            ],
            "min" : [
                -5.750195503234863,
                -1.5479388236999512,
                -0.891528308391571
            ],
            "type" : "VEC3"
        },
        {
            "bufferView" : 25,
            "componentType" : 5126,
            "count" : 404,
            "type" : "VEC3"
        },
        {
            "bufferView" : 26,
            "componentType" : 5126,
            "count" : 404,
            "type" : "VEC2"
        },
        {
            "bufferView" : 27,
            "componentType" : 5123,
            "count" : 1212,
            "type" : "SCALAR"
        },
        {
            "bufferView" : 28,
            "componentType" : 5126,
            "count" : 74,
            "max" : [
                1,
                1,
                1
            ],
            "min" : [
                -1,
                -1,
                -1
            ],
            "type" : "VEC3"
        },
        {
            "bufferView" : 29,
            "componentType" : 5126,
            "count" : 74,
            "type" : "VEC3"
        },
        {
            "bufferView" : 30,
            "componentType" : 5126,
            "count" : 74,
            "type" : "VEC2"
        },
        {
            "bufferView" : 31,
            "componentType" : 5123,
            "count" : 132,
            "type" : "SCALAR"
        },
        {
            "bufferView" : 32,
            "componentType" : 5126,
            "count" : 324,
            "max" : [
                1,
                1,
                1
            ],
            "min" : [
                -1,
                -1,
                -1
            ],
            "type" : "VEC3"
        },
        {
            "bufferView" : 33,
            "componentType" : 5126,
            "count" : 324,
            "type" : "VEC3"
        },
        {
            "bufferView" : 34,
            "componentType" : 5126,
            "count" : 324,
            "type" : "VEC2"
        },
        {
            "bufferView" : 35,
            "componentType" : 5123,
            "count" : 768,
            "type" : "SCALAR"
        },
        {
            "bufferView" : 36,
            "componentType" : 5126,
            "count" : 3,
            "max" : [
                0.8333333333333334
            ],
            "min" : [
                0
            ],
            "type" : "SCALAR"
        },
        {
            "bufferView" : 37,
            "componentType" : 5126,
            "count" : 9,
            "type" : "VEC3"
        }
    ],
    "bufferViews" : [
        {
            "buffer" : 0,
            "byteLength" : 1632,
            "byteOffset" : 0
        },
        {
            "buffer" : 0,
            "byteLength" : 1632,
            "byteOffset" : 1632
        },
        {
            "buffer" : 0,
            "byteLength" : 1088,
            "byteOffset" : 3264
        },
        {
            "buffer" : 0,
            "byteLength" : 768,
            "byteOffset" : 4352
        },
        {
            "buffer" : 0,
            "byteLength" : 5652,
            "byteOffset" : 5120
        },
        {
            "buffer" : 0,
            "byteLength" : 5652,
            "byteOffset" : 10772
        },
        {
            "buffer" : 0,
            "byteLength" : 3768,
            "byteOffset" : 16424
        },
        {
            "buffer" : 0,
            "byteLength" : 2868,
            "byteOffset" : 20192
        },
        {
            "buffer" : 0,
            "byteLength" : 276,
            "byteOffset" : 23060
        },
        {
            "buffer" : 0,
            "byteLength" : 276,
            "byteOffset" : 23336
        },
        {
            "buffer" : 0,
            "byteLength" : 184,
            "byteOffset" : 23612
        },
        {
            "buffer" : 0,
            "byteLength" : 108,
            "byteOffset" : 23796
        },
        {
            "buffer" : 0,
            "byteLength" : 96,
            "byteOffset" : 23904
        },
        {
            "buffer" : 0,
            "byteLength" : 96,
            "byteOffset" : 24000
        },
        {
            "buffer" : 0,
            "byteLength" : 64,
            "byteOffset" : 24096
        },
        {
            "buffer" : 0,
            "byteLength" : 36,
            "byteOffset" : 24160
        },
        {
            "buffer" : 0,
            "byteLength" : 6612,
            "byteOffset" : 24196
        },
        {
            "buffer" : 0,
            "byteLength" : 6612,
            "byteOffset" : 30808
        },
        {
            "buffer" : 0,
            "byteLength" : 4408,
            "byteOffset" : 37420
        },
        {
            "buffer" : 0,
            "byteLength" : 2688,
            "byteOffset" : 41828
        },
        {
            "buffer" : 0,
            "byteLength" : 19416,
            "byteOffset" : 44516
        },
        {
            "buffer" : 0,
            "byteLength" : 19416,
            "byteOffset" : 63932
        },
        {
            "buffer" : 0,
            "byteLength" : 12944,
            "byteOffset" : 83348
        },
        {
            "buffer" : 0,
            "byteLength" : 8496,
            "byteOffset" : 96292
        },
        {
            "buffer" : 0,
            "byteLength" : 4848,
            "byteOffset" : 104788
        },
        {
            "buffer" : 0,
            "byteLength" : 4848,
            "byteOffset" : 109636
        },
        {
            "buffer" : 0,
            "byteLength" : 3232,
            "byteOffset" : 114484
        },
        {
            "buffer" : 0,
            "byteLength" : 2424,
            "byteOffset" : 117716
        },
        {
            "buffer" : 0,
            "byteLength" : 888,
            "byteOffset" : 120140
        },
        {
            "buffer" : 0,
            "byteLength" : 888,
            "byteOffset" : 121028
        },
        {
            "buffer" : 0,
            "byteLength" : 592,
            "byteOffset" : 121916
        },
        {
            "buffer" : 0,
            "byteLength" : 264,
            "byteOffset" : 122508
        },
        {
            "buffer" : 0,
            "byteLength" : 3888,
            "byteOffset" : 122772
        },
        {
            "buffer" : 0,
            "byteLength" : 3888,
            "byteOffset" : 126660
        },
        {
            "buffer" : 0,
            "byteLength" : 2592,
            "byteOffset" : 130548
        },
        {
            "buffer" : 0,
            "byteLength" : 1536,
            "byteOffset" : 133140
        },
        {
            "buffer" : 0,
            "byteLength" : 12,
            "byteOffset" : 134676
        },
        {
            "buffer" : 0,
            "byteLength" : 108,
            "byteOffset" : 134688
        }
    ],
    "buffers" : [
        {
            "byteLength" : 134796,
            "uri" : "data:application/octet-stream;base64,"
        }
    ]
}
